<svg width="48" height="48" viewBox="0 0 48 48" fill="none" xmlns="http://www.w3.org/2000/svg">
<path d="M35.0344 25.1109C35.0156 21.9141 36.4641 19.5047 39.3891 17.7281C37.7531 15.3844 35.2781 14.0953 32.0156 13.8469C28.9266 13.6031 25.5469 15.6469 24.3094 15.6469C23.0016 15.6469 20.0109 13.9313 17.6578 13.9313C12.8016 14.0063 7.64062 17.8031 7.64062 25.5281C7.64062 27.8109 8.05781 30.1688 8.89219 32.5969C10.0078 35.7938 14.0297 43.6266 18.225 43.5C20.4187 43.4484 21.9703 41.9438 24.825 41.9438C27.5953 41.9438 29.0297 43.5 31.4766 43.5C35.7094 43.4391 39.3469 36.3188 40.4062 33.1125C34.7297 30.4359 35.0344 25.275 35.0344 25.1109V25.1109ZM30.1078 10.8141C32.4844 7.99219 32.2688 5.42344 32.1984 4.5C30.0984 4.62188 27.6703 5.92969 26.2875 7.5375C24.7641 9.2625 23.8687 11.3953 24.0609 13.8C26.3297 13.9734 28.4016 12.8063 30.1078 10.8141V10.8141Z" fill="#CBA4A4"/>
</svg>
