<svg width="36" height="36" viewBox="0 0 36 36" fill="none" xmlns="http://www.w3.org/2000/svg">
<path d="M18 0C13.2261 0 8.64773 1.89642 5.27208 5.27208C1.89642 8.64773 0 13.2261 0 18C0 22.7739 1.89642 27.3523 5.27208 30.7279C8.64773 34.1036 13.2261 36 18 36C22.7739 36 27.3523 34.1036 30.7279 30.7279C34.1036 27.3523 36 22.7739 36 18C36 13.2261 34.1036 8.64773 30.7279 5.27208C27.3523 1.89642 22.7739 0 18 0V0ZM22.7445 32.6745H22.605C22.5002 32.6804 22.3953 32.6648 22.2968 32.6287C22.1983 32.5926 22.1081 32.5367 22.032 32.4645C21.9616 32.3901 21.9068 32.3025 21.8708 32.2067C21.8347 32.1108 21.8181 32.0088 21.822 31.9065V29.7975C21.831 29.097 21.837 28.3875 21.837 27.6735C21.8345 27.1514 21.7583 26.6323 21.6105 26.1315C21.4705 25.6253 21.1884 25.1698 20.7975 24.819C21.843 24.7181 22.8707 24.4805 23.8545 24.1125C24.6843 23.7969 25.4349 23.3034 26.0535 22.6665C26.664 22.026 27.1185 21.252 27.381 20.4075C27.7003 19.3733 27.8522 18.2947 27.831 17.2125C27.8368 16.4569 27.7047 15.7066 27.441 14.9985C27.1731 14.2848 26.7679 13.6305 26.2485 13.0725C26.3606 12.7911 26.4421 12.4984 26.4915 12.1995C26.541 11.8995 26.5665 11.5965 26.5665 11.2935C26.5665 10.9035 26.5215 10.5135 26.4315 10.134C26.3497 9.74476 26.2389 9.36219 26.1 8.9895C26.047 8.96881 25.9904 8.95862 25.9335 8.9595H25.7685C25.4235 8.9625 25.0845 9.0195 24.7575 9.126C24.3973 9.23114 24.0449 9.36146 23.703 9.516C23.3629 9.66842 23.0319 9.8402 22.7115 10.0305C22.389 10.221 22.104 10.404 21.852 10.5735C19.3286 9.87019 16.6609 9.87019 14.1375 10.5735C13.8561 10.3854 13.57 10.2043 13.2795 10.0305C12.9545 9.83861 12.6179 9.66728 12.2715 9.5175C11.9305 9.35784 11.5768 9.22688 11.214 9.126C10.8934 9.0201 10.5586 8.96395 10.221 8.9595H10.056C9.99957 8.9587 9.94353 8.96889 9.891 8.9895C9.75009 9.36271 9.63482 9.74509 9.546 10.134C9.465 10.515 9.426 10.9035 9.4245 11.2935C9.4245 11.5965 9.45 11.8995 9.501 12.1995C9.5505 12.498 9.63 12.7905 9.741 13.0725C9.22288 13.6312 8.81928 14.2861 8.553 15C8.28792 15.7079 8.15423 16.4581 8.1585 17.214C8.13752 18.2904 8.28531 19.3634 8.5965 20.394C8.868 21.2385 9.321 22.014 9.9225 22.668C10.545 23.301 11.295 23.793 12.1215 24.114C13.101 24.489 14.127 24.729 15.171 24.828C14.8795 25.0922 14.6483 25.416 14.493 25.7775C14.3453 26.135 14.2445 26.5101 14.193 26.8935C13.6426 27.157 13.0407 27.2953 12.4305 27.2985C11.8638 27.3212 11.3045 27.1636 10.833 26.8485C10.3807 26.5133 9.99759 26.0935 9.705 25.6125C9.57405 25.4104 9.42761 25.2189 9.267 25.0395C9.09756 24.8509 8.91074 24.6786 8.709 24.525C8.51016 24.3764 8.2922 24.2553 8.061 24.165C7.83353 24.0653 7.58788 24.0137 7.3395 24.0135C7.2795 24.015 7.2195 24.021 7.1595 24.0285C7.07756 24.0282 6.99591 24.0383 6.9165 24.0585C6.8467 24.0768 6.78069 24.1072 6.7215 24.1485C6.69459 24.1633 6.67209 24.185 6.65628 24.2114C6.64047 24.2377 6.63192 24.2678 6.6315 24.2985C6.6378 24.3707 6.65987 24.4406 6.69616 24.5033C6.73245 24.5661 6.78206 24.6201 6.8415 24.6615C6.981 24.7725 7.0965 24.858 7.1895 24.918L7.2345 24.9495C7.434 25.104 7.626 25.2705 7.8075 25.449C7.9755 25.596 8.127 25.7625 8.2575 25.944C8.3925 26.1225 8.5095 26.313 8.604 26.5155C8.7135 26.7165 8.829 26.9475 8.9505 27.21C9.2325 27.921 9.7335 28.5225 10.3815 28.9275C11.061 29.292 11.823 29.4735 12.5955 29.454C12.8565 29.454 13.119 29.439 13.3785 29.409C13.6365 29.367 13.893 29.3235 14.151 29.2725V31.887C14.1557 31.9924 14.138 32.0976 14.0993 32.1958C14.0605 32.2939 14.0015 32.3828 13.926 32.4565C13.8505 32.5303 13.7604 32.5873 13.6614 32.6238C13.5624 32.6603 13.4568 32.6756 13.3515 32.6685H13.2585C9.76056 31.5385 6.781 29.1967 4.85635 26.0649C2.93171 22.9331 2.18845 19.217 2.76042 15.5859C3.33239 11.9547 5.18201 8.64705 7.97621 6.25854C10.7704 3.87003 14.3256 2.55761 18.0015 2.55761C21.6774 2.55761 25.2326 3.87003 28.0268 6.25854C30.821 8.64705 32.6706 11.9547 33.2426 15.5859C33.8146 19.217 33.0713 22.9331 31.1466 26.0649C29.222 29.1967 26.2424 31.5385 22.7445 32.6685V32.676V32.6745Z" fill="#CBA4A4"/>
</svg>
