<svg width="54" height="21" viewBox="0 0 54 21" fill="none" xmlns="http://www.w3.org/2000/svg">
<path d="M0 18.9632H10.503V20.3245H0V18.9632ZM0 16.3448H10.503V17.7091H0V16.3448ZM2.98856 13.7294H7.49756V15.1014H2.98856V13.7294ZM2.98856 11.1232H7.49756V12.4952H2.98856V11.1232ZM2.98856 8.50479H7.49756V9.87679H2.98856V8.50479ZM2.98856 5.88941H7.49756V7.26141H2.98856V5.88941ZM0 3.28323H10.503V4.65523H0V3.28323ZM0 0.675507H10.503V2.03679H0V0.675507ZM11.9964 17.7091H28.1424C28.4141 17.2865 28.6267 16.8256 28.7482 16.3448H11.9964V17.7091ZM26.8853 11.1232H15.0036V12.4952H28.1526C27.8175 11.9796 27.393 11.5163 26.8954 11.1232H26.8853ZM14.9934 8.50479V9.87679H26.8853C27.3966 9.49551 27.8083 9.03154 28.1526 8.50479H14.9934ZM28.1424 3.28323H11.9964V4.65523H28.7381C28.6073 4.17599 28.407 3.71462 28.1424 3.28323ZM23.1862 0.675507H11.9964V2.03679H27.0354C25.9861 1.16085 24.6121 0.674938 23.1862 0.675507V0.675507ZM14.9934 5.88941H19.494V7.26141H14.9934V5.88941ZM24.003 7.26141H28.7061C28.84 6.81419 28.9081 6.35285 28.9086 5.88941H24.003V7.26141ZM14.9934 13.7294H19.494V15.1014H14.9934V13.7294ZM24.003 13.7294V15.1014H28.9086C28.9086 14.6298 28.836 14.1689 28.7061 13.7294H24.003ZM11.9964 20.3184L23.1761 20.3245C24.6797 20.3245 26.0314 19.8085 27.0439 18.9632H11.9964V20.3184ZM30.0054 18.9632H37.4929V20.3245H30.0054V18.9632ZM30.0054 16.3448H37.4929V17.7091H30.0054V16.3448ZM32.994 13.7294H37.4946V15.1014H32.994V13.7294ZM32.994 11.1232H37.4946V12.4952H32.994V11.1232ZM39.5871 3.28323H30.0071V4.65523H40.1051L39.5871 3.28323ZM38.5914 0.675507H30.0054V2.03679H39.1112L38.5914 0.675507ZM46.494 18.9632H54V20.3245H46.494V18.9632ZM46.494 16.3448H54V17.7091H46.494V16.3448ZM46.494 13.7294H50.9946V15.1014H46.494V13.7294ZM46.494 11.1232H50.9946V12.4952H46.494V11.1232ZM46.494 9.87679H50.9946V8.50479H42.4237L41.9934 9.61341L41.5732 8.50479H32.994V9.87679H37.4946V8.61657L37.9789 9.87679H46.0198L46.494 8.61657V9.87679ZM50.9946 5.88941H43.4194L42.8996 7.26141H50.9946V5.88941ZM45.414 0.675507L44.8943 2.03679H54V0.675507H45.414ZM41.9934 20.3184L42.5132 18.9632H41.4754L41.9934 20.3184ZM41.0012 17.7091H42.9941L43.5324 16.3448H40.473L41.0012 17.7091ZM39.9887 15.1014H44.0066L44.5331 13.7294H39.4622L39.9887 15.1014ZM38.988 12.4952H45.0174L45.5254 11.1232H38.4699L38.988 12.4952ZM32.994 7.26141H41.0991L40.5793 5.88941H32.994V7.26141ZM43.902 4.65523H54V3.28323H44.4099L43.902 4.65523Z" fill="#CBA4A4"/>
</svg>
