<svg width="40" height="40" viewBox="0 0 40 40" fill="none" xmlns="http://www.w3.org/2000/svg">
<path d="M26.1178 39.965L39.3472 37.3633C39.3472 37.3633 34.5732 8.00833 34.5347 7.81333C34.5017 7.62 34.3257 7.49333 34.1478 7.49333C33.97 7.49333 30.6113 7.26667 30.6113 7.26667C30.6113 7.26667 28.2738 5.14333 27.9732 4.915C27.9083 4.86172 27.8331 4.8199 27.7513 4.79167L26.0757 39.965H26.1178ZM19.4683 18.8417C19.4683 18.8417 17.9833 18.135 16.216 18.135C13.5632 18.135 13.4587 19.645 13.4587 20.0367C13.4587 22.09 19.3987 22.895 19.3987 27.7517C19.3987 31.5767 16.7587 34.0183 13.1543 34.0183C8.83866 34.0183 6.66433 31.5767 6.66433 31.5767L7.84866 28.1C7.84866 28.1 10.1312 29.8767 12.0287 29.8767C12.2588 29.8836 12.4882 29.8486 12.7033 29.7739C12.9185 29.6992 13.115 29.5862 13.2815 29.4415C13.448 29.2968 13.581 29.1234 13.6728 28.9314C13.7646 28.7394 13.8134 28.5327 13.8162 28.3233C13.8162 25.625 8.9505 25.5 8.9505 21.0583C8.88816 17.33 11.8307 13.6983 17.8 13.6983C20.1045 13.6983 21.2375 14.3 21.2375 14.3L19.505 18.825L19.4683 18.8417ZM18.4783 1.38333C18.7277 1.38333 18.9752 1.44667 19.2208 1.60833C17.4168 2.38333 15.4368 4.34 14.6228 8.26167C13.4741 8.59926 12.3195 8.92041 11.1597 9.225C12.1112 6.25 14.4102 1.4 18.4783 1.4V1.38333ZM20.7425 6.29833V6.52333C19.3602 6.91 17.8403 7.33 16.3535 7.75C17.2078 4.78833 18.7973 3.34167 20.176 2.79833C20.5298 3.63333 20.7425 4.75833 20.7425 6.29833ZM21.7307 2.575C23.003 2.69833 23.8225 4.02 24.3505 5.5C23.7107 5.69 23.003 5.885 22.2275 6.11V5.69C22.2275 4.43667 22.0515 3.405 21.7307 2.57167V2.575ZM27.216 4.72333C27.1793 4.72333 27.106 4.75833 27.073 4.75833C27.04 4.75833 26.5432 4.88333 25.764 5.10833C24.9885 3.05333 23.608 1.15833 21.166 1.15833H20.9552C20.2475 0.348333 19.3932 0 18.6525 0C12.9582 0 10.2375 6.46167 9.385 9.74333C7.196 10.3517 5.60283 10.8033 5.425 10.8667C4.1875 11.2217 4.15266 11.2533 4.00966 12.3167C3.87216 13.0867 0.654663 35.755 0.654663 35.755L25.5165 40L27.216 4.72333Z" fill="#CBA4A4"/>
</svg>
